<svg id="Layer_1" data-name="Layer 1" xmlns="http://www.w3.org/2000/svg" viewBox="0 0 940.38 92.17"><defs><style>.cls-1{fill:#fff;}.cls-2{fill:#231f20;}.cls-3{fill:#f37026;}</style></defs><rect class="cls-1" x="-206.43" y="-171.43" width="1210.21" height="509.06"/><path d="M931.1,2.06a7.29,7.29,0,0,1,1,14.51,7.17,7.17,0,0,1-1,.07,7.29,7.29,0,0,1-1-14.51,7.17,7.17,0,0,1,1-.07m0-2a9.76,9.76,0,0,0-1.32.09,9.29,9.29,0,0,0,1.29,18.49,9.76,9.76,0,0,0,1.32-.09A9.29,9.29,0,0,0,931.1.06Z"/><path class="cls-2" d="M932.14,13.35l-1.35-2.69h-1v2.69h-2.07v-8h4A2.58,2.58,0,0,1,934.46,8a2.42,2.42,0,0,1-1.59,2.4l1.63,2.94ZM932.36,8a.89.89,0,0,0-1-.85h-1.63V8.87h1.63A.88.88,0,0,0,932.36,8Z"/><path d="M44.89,75.15c3.1,0,5.35,0,7.18,1.41,1.83,1.26,2.81,3.37,2.81,7s-1,5.77-2.81,7S48,92,44.89,92H9c-6.76,0-9-2.68-9-9V10.41C0,7.18,0,4.78,1.41,3,2.82,1,5.63,0,9.57,0s6.61,1,8,3C19,4.78,19,7.18,19,10.41V75.15Z"/><path d="M207.85,67.74H175.6l-5.84,15.44c-2.22,5.69-4.31,8.89-11.4,8.89-6,0-8.2-2.36-8.2-5.56a14.26,14.26,0,0,1,1.39-5.28L181.16,9.91c2.5-6.12,4.73-9.87,11.4-9.87s8.76,3.89,11.26,10l28.5,71.32a14.77,14.77,0,0,1,1.11,5c0,3.62-3.05,5.7-8.89,5.7-6.54,0-8.62-2.64-11-8.89ZM181.44,52.45h20.72L191.87,25.34Z"/><path d="M256.51,81.36c0,3.2,0,5.71-1.39,7.51s-3.75,2.93-7.64,2.93-6.26-1.12-7.66-2.93-1.39-4.17-1.39-7.51v-74c0-4.73,3.06-7.37,9.32-7.37,6.68,0,9.46,3.2,13.21,8.07l40.62,51.6V10.29c0-3.2,0-5.56,1.39-7.37S306.72,0,310.62,0s6.26,1.11,7.65,2.92,1.39,4.17,1.39,7.37V84.56c0,4.87-3.06,7.51-8.49,7.51s-8.34-2.78-12.37-7.79L256.51,31.43Z"/><path d="M388.22,81.39c0,3.38,0,5.78-1.41,7.61s-4.23,3-8,3-6.62-1.12-8-3-1.4-4.23-1.4-7.61V8.59c0-6.06,2.53-8.59,9-8.59h33.79c3.81,0,5.21.28,7,1.55s3,3.24,3,6.9-1.12,5.91-3,7.18-4.08,1.41-7,1.41H388.22V37.18h19.85c3,0,5.21.14,7,1.4s3,3.24,3,6.9-1.13,5.78-3,7.05-4.08,1.4-7,1.4H388.22Z"/><path d="M480.74,67.65H448.52l-5.84,15.41c-2.22,5.7-4.3,8.89-11.39,8.89-6,0-8.19-2.36-8.19-5.55a14.07,14.07,0,0,1,1.39-5.28L454.07,9.86C456.57,3.75,458.8,0,465.46,0s8.76,3.89,11.26,10l28.47,71.26a14.72,14.72,0,0,1,1.11,5c0,3.61-3.05,5.69-8.89,5.69-6.53,0-8.61-2.64-11-8.89ZM454.35,52.37h20.7L464.77,25.28Z"/><path d="M556.54,75.56a32,32,0,0,0,11.89-2.46c4.64-1.92,7.24-3.83,10-3.83,4.64,0,7.24,5.47,7.24,9,0,3.28-2,5.88-5.74,8.06-6.29,3.83-15.58,5.6-23.65,5.6-24.46,0-45-16.12-45-46.05C511.3,15.15,532.76.25,556.4.25c8.75,0,17.36,2.05,23.37,5.61,4,2.32,5.88,4.92,5.88,7.92,0,3.56-2.46,9.43-7.38,9.43-2.73,0-5.61-2.05-10.39-4a30.53,30.53,0,0,0-12-2.6c-13.11,0-25.69,8.48-25.69,28.7C530.16,66.12,543.28,75.56,556.54,75.56Z"/><path d="M636.7,81c0,3.28,0,5.61-1.36,7.38s-4.1,2.87-7.79,2.87-6.56-1-7.93-2.87-1.37-4.1-1.37-7.38V18.57h-17.9c-3,0-5.19,0-7-1.37s-2.73-3.28-2.73-7,1-5.47,2.73-6.7,4-1.5,7-1.5h54.39c2.87,0,5.06.14,6.84,1.5s2.73,3.15,2.73,6.7-1,5.74-2.73,7-4,1.37-6.84,1.37h-18Z"/><path d="M783.35,81c0,3.28.14,5.61-1.23,7.38s-3.82,2.87-7.51,2.87-6.29-1-7.66-2.87-1.36-4.1-1.36-7.38V13.37c0-4.51,0-8.61,7.24-10.66,3.28-.95,8.61-1.64,15.85-1.64s15.31.69,22.14,4.1c8.61,4.24,13.67,11.89,13.67,22.55,0,11.21-5.47,19.68-15.44,24.47l21.59,29.38c3.14,4.37,1.78,9.7-7.65,9.7-7,0-9.43-3-12.71-7.92L797.84,64.89a74.3,74.3,0,0,1-5.19-8.74s-1.78.14-4.65.14-4.65-.14-4.65-.14Zm0-39.22s1.92.14,4.1.14c11.62,0,18.32-3.83,18.32-13.12,0-9.57-7-12.3-15.58-12.3a43.07,43.07,0,0,0-6.84.54Z"/><path d="M892.6,9.92c2.87-4.79,5.06-8.2,13.12-8.2,6.29,0,8.34,2.18,8.34,5.19,0,2.05-1.1,4-2.87,6.7L883,57.48V81.67c0,3.28,0,5.6-1.36,7.38s-3.28,2.87-7.79,2.87c-4,0-6.56-1-7.93-2.87s-1.36-4.1-1.36-7.25V57.61L837.66,14.15c-1.91-3-3-5.05-3-7.1,0-3.28,2.87-5.33,9.15-5.33,7.52,0,10.12,3,13.26,8.33l17.35,30.34Z"/><path class="cls-3" d="M55.19,40.73a46.76,46.76,0,0,1,2.86-11.57A46,46,0,0,1,72.81,9.5a47.07,47.07,0,0,1,10.33-6A46.52,46.52,0,0,1,94.52.37l1-.11A13.24,13.24,0,0,0,96,18.9a28.65,28.65,0,0,0-8.92,3.29A27.35,27.35,0,0,0,75.3,35.86a28.21,28.21,0,0,0-1.72,6.94,28.59,28.59,0,0,0,.12,7.1,28,28,0,0,0,1.87,6.85,27.37,27.37,0,0,0,3.6,6.18,28.19,28.19,0,0,0,5.28,5.18,26.8,26.8,0,0,0,9.85,4.7A27.6,27.6,0,0,0,115,69.92a27.73,27.73,0,0,0,11.74-13.7,28.64,28.64,0,0,0,1.76-7,27.32,27.32,0,0,0-.1-7,20.88,20.88,0,0,0-.78-2.93,9.21,9.21,0,1,1,17.55-5.62,41.61,41.61,0,0,1,1.57,6,46.08,46.08,0,0,1,.16,11.79A46.67,46.67,0,0,1,144,63a45.73,45.73,0,0,1-6.07,10.8,45.33,45.33,0,0,1-8.67,8.82,46,46,0,0,1-21.68,9.13,47,47,0,0,1-11.79.16A46,46,0,0,1,84.14,89,46.69,46.69,0,0,1,64.51,74.21a46,46,0,0,1-6-10.32,46.06,46.06,0,0,1-3.29-23.16Z"/><circle cx="105.19" cy="9.35" r="9.29"/><path class="cls-3" d="M664.61,40.73a47.21,47.21,0,0,1,2.86-11.57A45.94,45.94,0,0,1,682.24,9.5a46.84,46.84,0,0,1,10.33-6A46.33,46.33,0,0,1,703.94.37l1-.11a13.24,13.24,0,0,0,.46,18.64,28.62,28.62,0,0,0-8.93,3.29,27.49,27.49,0,0,0-11.75,13.67A27.75,27.75,0,0,0,683,42.8a27.46,27.46,0,0,0,10.87,25.31,26.83,26.83,0,0,0,9.84,4.7,27.63,27.63,0,0,0,20.67-2.89,27.73,27.73,0,0,0,11.74-13.7,28.62,28.62,0,0,0,1.75-7,27.32,27.32,0,0,0-.1-7,19.29,19.29,0,0,0-.77-2.93,9.21,9.21,0,1,1,17.54-5.62,43.27,43.27,0,0,1,1.58,6A46.09,46.09,0,0,1,717,91.72a47,47,0,0,1-11.78.16,46.49,46.49,0,0,1-31.24-17.67,45.76,45.76,0,0,1-9.16-21.69A46.08,46.08,0,0,1,664.61,40.73Z"/><circle cx="714.62" cy="9.35" r="9.29"/></svg>